<svg width="249" height="57" viewBox="0 0 249 57" fill="none" xmlns="http://www.w3.org/2000/svg">
<g clip-path="url(#clip0_3347_24796)">
<rect y="0.259399" width="249" height="56" rx="4" fill="white"/>
<path d="M229.239 26.992C229.117 25.9508 227.776 25.0824 226.967 24.9251C226.226 24.7806 225.473 24.7339 224.722 24.7247C224.129 24.7176 223.535 24.7488 222.945 24.8132C222.094 24.9067 221.687 25.2198 221.391 26.057C221.273 26.39 221.183 26.8971 221.407 27.2003C221.729 27.6345 222.377 27.3972 222.782 27.2711C223.224 27.133 223.735 27.1245 224.191 27.0834C224.658 27.0416 225.312 26.9056 225.759 27.1082C225.568 27.4935 225.022 27.6919 224.683 27.8845C224.19 28.165 223.71 28.4689 223.211 28.7388C221.86 29.4712 220.452 30.3537 219.013 30.8666C218.192 31.1584 217.32 31.2115 216.462 31.2363C215.808 31.2554 215.154 31.2696 214.502 31.2044C214.067 31.1612 213.295 31.1371 213.064 30.6491C212.901 30.3034 213.067 29.8841 213.239 29.5845C214.2 27.9164 215.689 26.8256 217.528 26.7611C217.987 26.7448 218.485 26.6967 218.74 26.2107C219.067 25.591 218.588 24.9712 218.067 24.7289C217.136 24.2983 216.015 24.6836 215.119 25.0498C214.235 25.4111 213.379 25.921 212.768 26.7144C211.973 27.7436 211.439 29.1907 211.611 30.5393C211.856 32.466 213.148 34.2991 215.112 34.1468C215.738 34.0979 216.374 33.9967 216.972 33.7834C217.579 33.566 218.17 33.0907 218.828 33.0907C218.85 33.0907 218.861 33.0971 218.872 33.1084C219.279 33.5462 219.643 33.9605 220.215 34.1319C220.775 34.2991 221.372 34.2559 221.946 34.2927C224.524 34.4556 227.091 34.0179 229.575 33.299C230.053 33.1601 230.61 32.8428 230.964 32.4759C231.697 31.7208 230.535 31.4701 229.96 31.463C229.285 31.4559 228.609 31.4339 227.933 31.4254C226.409 31.4055 224.886 31.4464 223.365 31.548C222.924 31.5777 222.477 31.6231 222.036 31.6436C221.748 31.6563 221.337 31.5395 221.517 31.1839C221.633 30.9544 221.997 30.7759 222.212 30.676C223.873 29.9096 225.529 29.3734 227.267 28.8493C227.856 28.6715 228.746 28.4058 229.077 27.7924C229.224 27.5204 229.268 27.2513 229.239 26.992ZM208.419 27.1011C208.458 26.6832 208.393 26.2511 208.157 25.989C207.96 25.7695 207.674 25.5449 207.413 25.4443C207.013 25.2913 206.662 25.6887 206.366 25.8955C205.997 26.1541 205.565 26.3297 205.159 26.5132C204.314 26.8957 203.573 27.099 202.597 27.2357C202.036 27.315 201.478 27.3398 201.143 27.2052C200.807 27.0707 200.625 25.9912 200.585 25.8828C200.416 25.4266 200.295 25.1206 199.796 25.0541C199.359 25.1206 199.202 25.5648 199.11 26.011C198.983 26.5823 198.951 27.1705 199.015 27.7521C199.096 28.4568 199.372 29.1595 199.873 29.6383C200.042 29.7998 200.174 29.8076 200.388 29.8799C200.595 29.9507 200.795 29.9932 200.837 30.2475C200.865 30.4196 200.84 30.6661 200.844 30.8474C200.853 31.3638 200.885 31.8816 200.912 32.3987C200.919 32.5488 200.929 32.7011 200.941 32.852C200.992 33.4782 200.926 34.6922 201.745 34.8247C202.828 34.9996 202.625 33.7863 202.655 33.0447C202.673 32.5701 202.689 32.0955 202.713 31.6231C202.718 31.5218 202.759 30.2029 202.831 30.2029C202.854 30.2029 202.869 30.1993 202.887 30.1958C203.275 30.1446 203.661 30.0789 204.044 29.9989C204.456 29.916 204.867 29.8133 205.268 29.6844C206.043 29.4365 206.83 29.0922 207.481 28.5681C207.828 28.2876 208.261 27.8186 208.377 27.3589C208.396 27.2839 208.41 27.196 208.419 27.1011ZM209.195 33.3854C209.41 32.9958 209.48 32.4065 209.28 31.9914C209.065 31.5466 208.26 31.8419 207.909 31.9092C207.544 31.9801 207.133 32.1231 207.011 32.5347C206.874 32.9915 207.163 33.714 207.481 34.0335C208.17 34.7227 208.819 34.0682 209.195 33.3854ZM178.748 27.7478C178.672 27.6889 178.619 27.6052 178.598 27.5112C178.451 26.9545 178.467 26.509 179.069 26.4098C179.739 26.2986 180.242 26.5373 180.887 26.6287C181.117 26.6612 181.387 26.8737 181.34 27.1457C181.296 27.4007 181.036 27.4574 180.84 27.5247C180.373 27.6834 179.193 28.0772 178.748 27.7478ZM197.116 33.1056C197.123 32.9476 197.124 32.7883 197.134 32.6381C197.211 31.4871 197.317 30.3374 197.442 29.1907C197.55 28.1884 197.692 27.1967 196.931 26.4317C196.182 25.6795 195.439 25.3558 194.457 25.8226C193.416 26.3184 192.485 27.0671 191.393 27.4524C191.519 27.4078 190.602 25.8332 190.496 25.7114C190.185 25.3544 189.309 24.6241 188.895 25.1993C188.626 25.574 188.621 26.1031 188.519 26.5451C188.399 27.0728 188.262 27.5955 188.152 28.1275C187.922 29.2395 187.533 30.5025 187.229 31.5954C187.21 31.5954 187.19 31.5954 187.164 31.5884C185.968 31.2696 184.74 31.101 183.545 30.7582C182.344 30.4081 181.16 30.002 179.998 29.5413C180.474 29.4542 180.99 29.3175 181.456 29.2098C181.967 29.0929 182.47 28.9392 182.94 28.6878C183.332 28.4781 183.779 28.267 184.015 27.8519C185.298 25.5952 180.819 24.8862 179.67 24.8416C178.874 24.8097 176.462 24.5469 176.259 25.7709C176.214 26.0408 176.266 26.3687 176.335 26.6301C176.419 26.9538 176.638 26.9757 176.775 27.2591C176.946 27.6097 176.573 28.2082 176.47 28.5553C176.312 29.0844 176.191 29.6249 176.052 30.1597C175.826 31.0259 175.662 31.8667 175.753 32.7705C175.772 32.9653 175.834 33.3995 175.928 33.554C176.144 33.9102 176.516 34.0335 176.875 33.8925C177.35 33.7084 177.398 33.1651 177.576 32.7118C177.615 32.614 178.092 31.4934 178.021 31.458C179.668 32.2889 181.503 32.9618 183.545 33.498C184.183 33.6644 184.873 33.5582 185.502 33.3995C185.896 33.3004 186.25 33.0687 186.654 32.9958C187.216 32.8945 187.184 33.2536 187.402 33.6807C187.508 33.889 187.638 34.0887 187.795 34.2566C189.123 35.6803 189.377 32.0353 189.556 31.3574C189.67 30.9225 189.689 30.3977 189.9 29.9982C190.124 29.5746 190.455 30.0088 190.661 30.2128C190.942 30.4904 191.234 30.6944 191.628 30.7228C192.191 30.7632 192.6 30.5514 193.02 30.176C193.417 29.8218 193.848 29.508 194.224 29.1255C194.426 28.9201 194.661 28.5057 194.957 28.4462C195.39 28.3591 195.236 29.0115 195.203 29.2998C195.142 29.8239 195.125 30.3537 195.096 30.8807C195.06 31.531 194.951 32.3101 195.072 32.9547C195.173 33.4888 195.871 34.3643 196.448 34.2318C197.017 34.1015 197.093 33.6092 197.116 33.1056ZM174.86 27.9809C174.92 27.5467 175.1 27.026 174.928 26.611C174.718 26.1052 174.538 25.9012 174.357 25.676C174.185 25.4599 173.623 24.9124 173.275 25.0881C172.995 25.2297 172.86 26.1378 172.76 26.4055C172.531 27.014 172.366 27.6508 172.212 28.2762C171.889 29.5902 171.825 30.8758 171.68 32.2088C171.62 32.7521 171.578 33.3011 171.64 33.8458C171.735 34.6703 172.416 34.768 173.072 34.3189C173.903 33.7502 173.987 32.6813 174.181 31.8476C174.357 31.0925 174.476 30.3318 174.649 29.5958C174.768 29.0865 174.796 28.5659 174.852 28.0481L174.86 27.9809Z" fill="black"/>
<path d="M169.946 21.0557C169.7 20.6222 169.311 20.2623 168.903 20.0265C167.384 19.1439 165.67 19.1354 163.991 19.1297C162.773 19.128 161.557 19.2161 160.352 19.3932C159.686 19.4896 159.023 19.6128 158.366 19.758C157.58 19.9256 156.803 20.1319 156.038 20.3764C155.343 20.6037 154.673 21.0068 154.033 21.3723C153.736 21.5423 153.417 21.7668 153.275 22.1104C153.105 22.5226 153.273 22.9157 153.306 23.3343C153.353 23.9159 153.587 24.0958 153.872 24.5328C154.435 25.397 155.337 25.6314 156.263 25.261C156.505 25.1639 157.103 24.7049 157.331 24.7729C157.7 24.8842 157.384 26.0692 157.306 26.3553C157.2 26.7463 157.001 27.0375 156.638 27.1798C156.333 27.2988 155.703 27.2301 155.603 27.6544C155.322 28.8394 156.522 29.7135 156.688 30.7668C156.771 31.2931 156.559 31.8201 156.505 32.34C156.433 33.0228 156.395 33.7127 156.34 34.3977C156.315 34.7185 156.226 35.1598 156.257 35.4743C156.305 35.9538 156.825 36.2436 157.217 36.087C157.838 35.8391 158.165 35.0245 158.417 34.426C158.762 33.605 158.943 32.7706 159.105 31.8937C159.213 31.3058 159.406 30.6797 160.051 30.6053C160.902 30.5083 161.732 30.2646 162.586 30.1683C163.503 30.0641 164.427 30.0216 165.335 29.8332C165.94 29.7078 166.557 29.727 167.167 29.637C168.192 29.4854 169.403 29.0796 170.294 28.5016C170.728 28.2197 170.899 27.5864 171.078 27.1111C171.548 25.8666 168.351 26.038 167.866 26.0331C166.489 26.0203 165.212 26.0586 164.035 26.1598C163.173 26.2342 162.324 26.2994 161.459 26.2824C161.082 26.2753 160.532 26.2788 160.286 25.9148C159.998 25.4876 160.203 24.5548 160.382 24.1156C160.608 23.5596 161.468 23.714 161.914 23.6793C162.673 23.6198 163.428 23.5036 164.188 23.4696C165.806 23.3974 167.357 23.3251 168.96 23.0538C169.363 22.9858 170.08 22.8442 170.18 22.325C170.265 21.8681 170.16 21.4339 169.946 21.0557Z" fill="#DE0000"/>
<path d="M25.5254 21.0707C25.7337 20.654 26.3588 20.654 26.463 21.0707L28.0258 24.9255C28.13 25.1339 28.2341 25.2381 28.4425 25.2381L32.6099 25.5506C33.0266 25.5506 33.235 26.1757 32.9224 26.4883L29.7969 29.1971C29.6927 29.3012 29.5885 29.5096 29.5885 29.718L30.5262 33.7812C30.6304 34.1979 30.1095 34.6146 29.7969 34.3021L26.2547 32.1142C26.0463 32.01 25.8379 32.01 25.7337 32.1142L22.1915 34.3021C21.7747 34.5104 21.2538 34.1979 21.4622 33.7812L22.3998 29.718C22.3998 29.5096 22.3998 29.3012 22.1915 29.1971L19.0659 26.4883C18.7534 26.1757 18.8576 25.6548 19.3785 25.5506L23.5459 25.2381C23.7542 25.2381 23.8584 25.1339 23.9626 24.9255L25.5254 21.0707Z" fill="white"/>
<path d="M21.983 35.2397C21.6705 35.2397 21.4621 35.1356 21.2537 35.0314C20.837 34.7188 20.6286 34.1979 20.7328 33.677L21.6705 29.8222L18.6491 27.2176C18.2324 26.905 18.1282 26.2799 18.2324 25.8632C18.4408 25.3423 18.8575 25.0297 19.3784 24.9255L23.3374 24.613L24.9002 20.8623C25.1086 20.3414 25.5253 20.0289 26.1504 20.0289C26.7755 20.0289 27.1922 20.3414 27.4006 20.8623L28.9634 24.613L32.9224 24.9255C33.4433 24.9255 33.86 25.3423 34.0684 25.8632C34.2768 26.3841 34.0684 26.905 33.6516 27.2176L30.6303 29.8222L31.568 33.677C31.6721 34.1979 31.4638 34.7188 31.047 35.0314C30.6303 35.3439 30.0052 35.3439 29.5885 35.1356L26.1504 33.0519L22.7123 35.1356C22.3998 35.1356 22.1914 35.2397 21.983 35.2397ZM26.0462 31.2808C26.2546 31.2808 26.5671 31.3849 26.7755 31.4891L29.7968 33.3644L28.9634 29.9264C28.8592 29.4054 28.9634 28.9887 29.3801 28.6761L32.0889 26.3841L28.5466 26.0715C28.0257 26.0715 27.609 25.759 27.4006 25.2381L26.0462 22.0084L24.6918 25.2381C24.4834 25.6548 24.0667 25.9674 23.5458 26.0715L20.0035 26.3841L22.7123 28.6761C23.1291 28.9887 23.2332 29.5096 23.1291 29.9264L22.2956 33.3644L25.3169 31.4891C25.5253 31.3849 25.8378 31.2808 26.0462 31.2808Z" fill="#F6A622"/>
<path d="M41.2362 27.5662C41.2362 26.0807 41.635 24.9188 42.4327 24.0805C43.2303 23.238 44.26 22.8168 45.5216 22.8168C46.3477 22.8168 47.0925 23.0142 47.7558 23.409C48.4192 23.8037 48.9238 24.3552 49.2698 25.0633C49.6197 25.7674 49.7947 26.5671 49.7947 27.4624C49.7947 28.3699 49.6116 29.1818 49.2453 29.8981C48.8791 30.6144 48.3602 31.1577 47.6887 31.528C47.0172 31.8943 46.2928 32.0774 45.5155 32.0774C44.673 32.0774 43.9201 31.8739 43.2568 31.467C42.5934 31.06 42.0908 30.5045 41.749 29.8004C41.4071 29.0964 41.2362 28.3516 41.2362 27.5662ZM42.4571 27.5845C42.4571 28.6629 42.746 29.5135 43.3239 30.1362C43.9059 30.7548 44.6344 31.0641 45.5094 31.0641C46.4006 31.0641 47.1332 30.7507 47.707 30.124C48.2849 29.4972 48.5738 28.608 48.5738 27.4563C48.5738 26.7278 48.4497 26.0929 48.2015 25.5517C47.9573 25.0063 47.5971 24.5851 47.121 24.288C46.6489 23.9869 46.1178 23.8363 45.5277 23.8363C44.6893 23.8363 43.9669 24.1252 43.3606 24.7031C42.7582 25.277 42.4571 26.2374 42.4571 27.5845ZM51.1866 31.9248V22.9756H52.2854V26.1865C52.7982 25.5924 53.4453 25.2953 54.2266 25.2953C54.7069 25.2953 55.124 25.3909 55.4781 25.5822C55.8321 25.7694 56.0845 26.0299 56.235 26.3636C56.3897 26.6973 56.467 27.1816 56.467 27.8165V31.9248H55.3682V27.8165C55.3682 27.267 55.2481 26.8682 55.008 26.62C54.772 26.3676 54.4362 26.2415 54.0008 26.2415C53.6752 26.2415 53.3679 26.3269 53.079 26.4979C52.7941 26.6647 52.5906 26.8926 52.4685 27.1816C52.3464 27.4705 52.2854 27.8694 52.2854 28.3781V31.9248H51.1866ZM57.7368 28.6833C57.7368 27.4827 58.0705 26.5935 58.7379 26.0156C59.2954 25.5354 59.9751 25.2953 60.7768 25.2953C61.6681 25.2953 62.3965 25.5883 62.9622 26.1743C63.5279 26.7563 63.8108 27.5621 63.8108 28.5917C63.8108 29.426 63.6846 30.0833 63.4323 30.5635C63.184 31.0396 62.8198 31.41 62.3396 31.6745C61.8634 31.939 61.3425 32.0713 60.7768 32.0713C59.8693 32.0713 59.1347 31.7803 58.5731 31.1984C58.0155 30.6164 57.7368 29.778 57.7368 28.6833ZM58.8661 28.6833C58.8661 29.5135 59.0472 30.1362 59.4094 30.5513C59.7716 30.9623 60.2274 31.1678 60.7768 31.1678C61.3221 31.1678 61.7759 30.9603 62.1381 30.5452C62.5003 30.1301 62.6814 29.4972 62.6814 28.6467C62.6814 27.8449 62.4983 27.2386 62.132 26.8275C61.7698 26.4124 61.3181 26.2049 60.7768 26.2049C60.2274 26.2049 59.7716 26.4104 59.4094 26.8214C59.0472 27.2325 58.8661 27.8531 58.8661 28.6833ZM69.311 31.9248V31.1068C68.8999 31.7498 68.2956 32.0713 67.4979 32.0713C66.9811 32.0713 66.5049 31.9289 66.0694 31.644C65.6381 31.3591 65.3023 30.9623 65.0622 30.4536C64.8262 29.9408 64.7081 29.3528 64.7081 28.6894C64.7081 28.0423 64.816 27.4563 65.0317 26.9313C65.2474 26.4022 65.5709 25.9973 66.0023 25.7165C66.4337 25.4357 66.9159 25.2953 67.4491 25.2953C67.8398 25.2953 68.1877 25.3787 68.4929 25.5456C68.7982 25.7084 69.0464 25.922 69.2377 26.1865V22.9756H70.3304V31.9248H69.311ZM65.8375 28.6894C65.8375 29.5196 66.0125 30.1402 66.3625 30.5513C66.7125 30.9623 67.1255 31.1678 67.6017 31.1678C68.0819 31.1678 68.4889 30.9725 68.8226 30.5818C69.1604 30.187 69.3293 29.5868 69.3293 28.781C69.3293 27.8938 69.1583 27.2426 68.8165 26.8275C68.4746 26.4124 68.0534 26.2049 67.5528 26.2049C67.0645 26.2049 66.6555 26.4043 66.3258 26.8031C66.0003 27.2019 65.8375 27.8307 65.8375 28.6894ZM72.0641 31.9248V25.4418H73.053V26.3636C73.5292 25.6514 74.217 25.2953 75.1164 25.2953C75.5071 25.2953 75.8652 25.3665 76.1908 25.5089C76.5204 25.6473 76.7666 25.8304 76.9294 26.0583C77.0922 26.2862 77.2062 26.5569 77.2713 26.8702C77.312 27.0737 77.3323 27.4298 77.3323 27.9385V31.9248H76.2335V27.9813C76.2335 27.5336 76.1908 27.1999 76.1053 26.9801C76.0198 26.7563 75.8672 26.5793 75.6475 26.449C75.4318 26.3147 75.1774 26.2476 74.8844 26.2476C74.4164 26.2476 74.0114 26.3961 73.6696 26.6932C73.3318 26.9903 73.1629 27.554 73.1629 28.3842V31.9248H72.0641ZM78.6143 28.6833C78.6143 27.4827 78.948 26.5935 79.6154 26.0156C80.173 25.5354 80.8526 25.2953 81.6543 25.2953C82.5456 25.2953 83.2741 25.5883 83.8398 26.1743C84.4054 26.7563 84.6883 27.5621 84.6883 28.5917C84.6883 29.426 84.5621 30.0833 84.3098 30.5635C84.0615 31.0396 83.6973 31.41 83.2171 31.6745C82.7409 31.939 82.22 32.0713 81.6543 32.0713C80.7468 32.0713 80.0122 31.7803 79.4506 31.1984C78.893 30.6164 78.6143 29.778 78.6143 28.6833ZM79.7436 28.6833C79.7436 29.5135 79.9247 30.1362 80.2869 30.5513C80.6491 30.9623 81.1049 31.1678 81.6543 31.1678C82.1997 31.1678 82.6534 30.9603 83.0156 30.5452C83.3778 30.1301 83.5589 29.4972 83.5589 28.6467C83.5589 27.8449 83.3758 27.2386 83.0095 26.8275C82.6473 26.4124 82.1956 26.2049 81.6543 26.2049C81.1049 26.2049 80.6491 26.4104 80.2869 26.8214C79.9247 27.2325 79.7436 27.8531 79.7436 28.6833ZM88.7051 24.1049V22.9756H89.8283V24.1049C89.8283 24.5159 89.755 24.8496 89.6085 25.106C89.462 25.3584 89.2301 25.5537 88.9126 25.6921L88.6379 25.277C88.8455 25.1834 88.9981 25.0491 89.0958 24.8741C89.1975 24.695 89.2524 24.4386 89.2606 24.1049H88.7051ZM88.3754 30.942L88.5341 31.9126C88.2248 31.9777 87.9481 32.0103 87.7039 32.0103C87.3051 32.0103 86.9958 31.9472 86.776 31.821C86.5563 31.6949 86.4016 31.53 86.3121 31.3266C86.2226 31.119 86.1778 30.6856 86.1778 30.0263V26.2964H85.372V25.4418H86.1778V23.8363L87.2705 23.177V25.4418H88.3754V26.2964H87.2705V30.0873C87.2705 30.4007 87.2888 30.6022 87.3254 30.6917C87.3661 30.7812 87.4292 30.8524 87.5147 30.9053C87.6042 30.9583 87.7304 30.9847 87.8932 30.9847C88.0153 30.9847 88.176 30.9705 88.3754 30.942ZM93.0698 30.942L93.2285 31.9126C92.9192 31.9777 92.6425 32.0103 92.3983 32.0103C91.9995 32.0103 91.6902 31.9472 91.4704 31.821C91.2507 31.6949 91.096 31.53 91.0065 31.3266C90.9169 31.119 90.8722 30.6856 90.8722 30.0263V26.2964H90.0664V25.4418H90.8722V23.8363L91.9649 23.177V25.4418H93.0698V26.2964H91.9649V30.0873C91.9649 30.4007 91.9832 30.6022 92.0198 30.6917C92.0605 30.7812 92.1236 30.8524 92.2091 30.9053C92.2986 30.9583 92.4248 30.9847 92.5876 30.9847C92.7096 30.9847 92.8704 30.9705 93.0698 30.942ZM98.5883 29.8371L99.7238 29.9775C99.5447 30.6408 99.213 31.1556 98.7287 31.5219C98.2444 31.8882 97.6258 32.0713 96.8729 32.0713C95.9247 32.0713 95.1718 31.7803 94.6143 31.1984C94.0608 30.6123 93.784 29.7923 93.784 28.7382C93.784 27.6476 94.0649 26.8011 94.6265 26.1987C95.1881 25.5964 95.9166 25.2953 96.8119 25.2953C97.6787 25.2953 98.3869 25.5903 98.9363 26.1804C99.4857 26.7705 99.7604 27.6008 99.7604 28.6711C99.7604 28.7362 99.7583 28.8339 99.7543 28.9641H94.9195C94.9602 29.6763 95.1616 30.2216 95.5238 30.6001C95.886 30.9786 96.3378 31.1678 96.879 31.1678C97.2819 31.1678 97.6258 31.062 97.9107 30.8504C98.1956 30.6388 98.4215 30.301 98.5883 29.8371ZM94.9805 28.0606H98.6005C98.5517 27.5153 98.4133 27.1063 98.1854 26.8336C97.8354 26.4104 97.3816 26.1987 96.8241 26.1987C96.3195 26.1987 95.8942 26.3676 95.5483 26.7054C95.2064 27.0432 95.0172 27.4949 94.9805 28.0606ZM104.589 31.9248V25.4418H105.578V26.3636C106.054 25.6514 106.742 25.2953 107.641 25.2953C108.032 25.2953 108.39 25.3665 108.716 25.5089C109.045 25.6473 109.292 25.8304 109.454 26.0583C109.617 26.2862 109.731 26.5569 109.796 26.8702C109.837 27.0737 109.857 27.4298 109.857 27.9385V31.9248H108.758V27.9813C108.758 27.5336 108.716 27.1999 108.63 26.9801C108.545 26.7563 108.392 26.5793 108.172 26.449C107.957 26.3147 107.702 26.2476 107.409 26.2476C106.941 26.2476 106.536 26.3961 106.195 26.6932C105.857 26.9903 105.688 27.554 105.688 28.3842V31.9248H104.589ZM115.779 31.1251C115.372 31.471 114.979 31.7152 114.601 31.8577C114.226 32.0001 113.823 32.0713 113.392 32.0713C112.68 32.0713 112.132 31.8984 111.75 31.5524C111.367 31.2024 111.176 30.7568 111.176 30.2155C111.176 29.8981 111.247 29.6092 111.39 29.3487C111.536 29.0842 111.725 28.8725 111.957 28.7138C112.193 28.5551 112.458 28.435 112.751 28.3537C112.967 28.2967 113.292 28.2417 113.728 28.1888C114.615 28.083 115.268 27.9569 115.687 27.8103C115.691 27.6598 115.693 27.5641 115.693 27.5234C115.693 27.0758 115.589 26.7604 115.382 26.5772C115.101 26.329 114.684 26.2049 114.13 26.2049C113.614 26.2049 113.231 26.2964 112.983 26.4796C112.739 26.6586 112.558 26.9781 112.44 27.438L111.365 27.2915C111.463 26.8316 111.624 26.4612 111.847 26.1804C112.071 25.8956 112.395 25.6778 112.818 25.5272C113.241 25.3726 113.732 25.2953 114.289 25.2953C114.843 25.2953 115.292 25.3604 115.638 25.4906C115.984 25.6209 116.239 25.7857 116.401 25.9851C116.564 26.1804 116.678 26.4287 116.743 26.7298C116.78 26.917 116.798 27.2548 116.798 27.7432V29.2083C116.798 30.2298 116.821 30.8769 116.865 31.1495C116.914 31.4181 117.008 31.6766 117.146 31.9248H115.998C115.885 31.6969 115.811 31.4303 115.779 31.1251ZM115.687 28.6711C115.288 28.8339 114.69 28.9722 113.892 29.0862C113.441 29.1513 113.121 29.2246 112.934 29.306C112.747 29.3874 112.602 29.5074 112.501 29.6661C112.399 29.8208 112.348 29.9937 112.348 30.185C112.348 30.478 112.458 30.7222 112.678 30.9176C112.901 31.1129 113.227 31.2106 113.654 31.2106C114.078 31.2106 114.454 31.119 114.784 30.9359C115.113 30.7487 115.355 30.4943 115.51 30.1728C115.628 29.9246 115.687 29.5583 115.687 29.074V28.6711ZM113.551 24.636L114.362 22.9267H115.803L114.46 24.636H113.551ZM118.068 29.9897L119.155 29.8187C119.216 30.2542 119.384 30.5879 119.661 30.8199C119.942 31.0519 120.333 31.1678 120.833 31.1678C121.338 31.1678 121.712 31.0661 121.956 30.8626C122.201 30.6551 122.323 30.4129 122.323 30.1362C122.323 29.8879 122.215 29.6926 121.999 29.5501C121.849 29.4525 121.474 29.3283 120.876 29.1778C120.07 28.9743 119.511 28.7993 119.197 28.6528C118.888 28.5022 118.652 28.2967 118.489 28.0362C118.33 27.7717 118.251 27.4807 118.251 27.1633C118.251 26.8743 118.316 26.6078 118.446 26.3636C118.581 26.1153 118.762 25.9098 118.99 25.747C119.161 25.6209 119.393 25.515 119.686 25.4296C119.983 25.34 120.3 25.2953 120.638 25.2953C121.147 25.2953 121.592 25.3685 121.975 25.515C122.361 25.6615 122.646 25.861 122.829 26.1133C123.013 26.3615 123.139 26.6953 123.208 27.1144L122.134 27.2609C122.085 26.9272 121.942 26.6668 121.706 26.4796C121.474 26.2924 121.145 26.1987 120.717 26.1987C120.213 26.1987 119.852 26.2822 119.637 26.449C119.421 26.6159 119.313 26.8112 119.313 27.0351C119.313 27.1775 119.358 27.3057 119.448 27.4197C119.537 27.5377 119.677 27.6353 119.869 27.7127C119.979 27.7534 120.302 27.847 120.839 27.9935C121.617 28.201 122.158 28.372 122.463 28.5063C122.772 28.6365 123.015 28.8278 123.19 29.0801C123.365 29.3324 123.452 29.6458 123.452 30.0202C123.452 30.3865 123.344 30.7324 123.129 31.058C122.917 31.3795 122.61 31.6298 122.207 31.8088C121.804 31.9838 121.348 32.0713 120.839 32.0713C119.997 32.0713 119.354 31.8963 118.91 31.5463C118.471 31.1963 118.19 30.6774 118.068 29.9897ZM128.238 31.9248V25.4418H129.227V26.3636C129.703 25.6514 130.391 25.2953 131.29 25.2953C131.681 25.2953 132.039 25.3665 132.365 25.5089C132.694 25.6473 132.941 25.8304 133.103 26.0583C133.266 26.2862 133.38 26.5569 133.445 26.8702C133.486 27.0737 133.506 27.4298 133.506 27.9385V31.9248H132.407V27.9813C132.407 27.5336 132.365 27.1999 132.279 26.9801C132.194 26.7563 132.041 26.5793 131.821 26.449C131.606 26.3147 131.351 26.2476 131.058 26.2476C130.59 26.2476 130.185 26.3961 129.844 26.6932C129.506 26.9903 129.337 27.554 129.337 28.3842V31.9248H128.238ZM139.428 31.1251C139.021 31.471 138.628 31.7152 138.249 31.8577C137.875 32.0001 137.472 32.0713 137.041 32.0713C136.329 32.0713 135.781 31.8984 135.399 31.5524C135.016 31.2024 134.825 30.7568 134.825 30.2155C134.825 29.8981 134.896 29.6092 135.039 29.3487C135.185 29.0842 135.374 28.8725 135.606 28.7138C135.842 28.5551 136.107 28.435 136.4 28.3537C136.616 28.2967 136.941 28.2417 137.377 28.1888C138.264 28.083 138.917 27.9569 139.336 27.8103C139.34 27.6598 139.342 27.5641 139.342 27.5234C139.342 27.0758 139.238 26.7604 139.031 26.5772C138.75 26.329 138.333 26.2049 137.779 26.2049C137.263 26.2049 136.88 26.2964 136.632 26.4796C136.388 26.6586 136.207 26.9781 136.088 27.438L135.014 27.2915C135.112 26.8316 135.273 26.4612 135.496 26.1804C135.72 25.8956 136.044 25.6778 136.467 25.5272C136.89 25.3726 137.381 25.2953 137.938 25.2953C138.492 25.2953 138.941 25.3604 139.287 25.4906C139.633 25.6209 139.888 25.7857 140.05 25.9851C140.213 26.1804 140.327 26.4287 140.392 26.7298C140.429 26.917 140.447 27.2548 140.447 27.7432V29.2083C140.447 30.2298 140.47 30.8769 140.514 31.1495C140.563 31.4181 140.657 31.6766 140.795 31.9248H139.647C139.533 31.6969 139.46 31.4303 139.428 31.1251ZM139.336 28.6711C138.937 28.8339 138.339 28.9722 137.541 29.0862C137.09 29.1513 136.77 29.2246 136.583 29.306C136.396 29.3874 136.251 29.5074 136.15 29.6661C136.048 29.8208 135.997 29.9937 135.997 30.185C135.997 30.478 136.107 30.7222 136.327 30.9176C136.55 31.1129 136.876 31.2106 137.303 31.2106C137.727 31.2106 138.103 31.119 138.433 30.9359C138.762 30.7487 139.004 30.4943 139.159 30.1728C139.277 29.9246 139.336 29.5583 139.336 29.074V28.6711Z" fill="black"/>
</g>
<defs>
<clipPath id="clip0_3347_24796">
<rect y="0.259399" width="249" height="56" rx="4" fill="white"/>
</clipPath>
</defs>
</svg>
